<?xml version="1.0" standalone="no"?>
<!DOCTYPE svg PUBLIC "-//W3C//DTD SVG 20010904//EN"
 "http://www.w3.org/TR/2001/REC-SVG-20010904/DTD/svg10.dtd">
<svg version="1.0" xmlns="http://www.w3.org/2000/svg"
 width="1000.000000pt" height="1000.000000pt" viewBox="0 0 1000.000000 1000.000000"
 preserveAspectRatio="xMidYMid meet">

<g transform="translate(0.000000,1000.000000) scale(0.100000,-0.100000)"
fill="#000000" stroke="none">
<path d="M4635 7494 c-638 -32 -1125 -92 -1620 -200 -2078 -451 -3286 -1537
-2960 -2659 210 -723 1069 -1377 2311 -1759 624 -192 1250 -303 2019 -358 236
-16 994 -16 1230 0 512 37 980 101 1390 192 1951 431 3137 1417 2979 2478 -90
609 -631 1185 -1509 1608 -786 378 -1725 605 -2840 684 -149 11 -867 21 -1000
14z"/>
</g>
</svg>
